<mxfile agent="5.0 (Windows NT 10.0; Win64; x64) AppleWebKit/537.36 (KHTML, like Gecko) draw.io/13.2.2 Chrome/83.0.4103.100 Electron/9.0.3 Safari/537.36" compressed="false" etag="bYsXQEBpe86CtkmkOr99" host="Electron" modified="2020-06-22T08:29:28.763Z" version="13.2.2" type="device">
  <diagram id="Page-1" name="Page-1">
    <mxGraphModel dx="852" dy="494" grid="1" gridSize="10" guides="1" tooltips="1" connect="1" arrows="1" fold="1" page="0" pageScale="1" pageWidth="827" pageHeight="1169" math="0" shadow="1">
      <root>
        <mxCell id="0" />
        <mxCell id="1" parent="0" />
        <object label="node-1" id="node-1">
          <mxCell style="rounded=1;whiteSpace=wrap;html=1;" parent="1" vertex="1">
            <mxGeometry x="536" width="120" height="60" as="geometry" />
          </mxCell>
        </object>
        <object label="node-2" id="node-2">
          <mxCell style="rounded=1;whiteSpace=wrap;html=1;" parent="1" vertex="1">
            <mxGeometry x="332" y="698" width="120" height="60" as="geometry" />
          </mxCell>
        </object>
        <object label="node-3" id="node-3">
          <mxCell style="rounded=1;whiteSpace=wrap;html=1;" parent="1" vertex="1">
            <mxGeometry x="1042" y="120" width="120" height="60" as="geometry" />
          </mxCell>
        </object>
        <object a="b" c="d" label="node-4" link="http://google.com" id="node-4">
          <mxCell style="rounded=1;whiteSpace=wrap;html=1;" parent="1" vertex="1">
            <mxGeometry x="802" width="120" height="60" as="geometry" />
          </mxCell>
        </object>
        <object label="bla1" id="98b6238be5acd1302f49c499f9173e32">
          <mxCell style="endArrow=none;" parent="1" source="node-1" target="node-2" edge="1">
            <mxGeometry relative="1" as="geometry" />
          </mxCell>
        </object>
        <object label="bla2" id="c0b00b2fdeaaa6f41cab0ef2448ffcef">
          <mxCell style="endArrow=none;" parent="1" source="node-2" target="node-3" edge="1">
            <mxGeometry relative="1" as="geometry" />
          </mxCell>
        </object>
        <object label="bla3" id="c8fe43e5ad1ce2c05bfc0b371d1fb987">
          <mxCell style="endArrow=none;" parent="1" source="node-3" target="node-1" edge="1">
            <mxGeometry relative="1" as="geometry" />
          </mxCell>
        </object>
        <object label="bla4" id="3972a5fc4a57b84e0376216959d97b1c">
          <mxCell style="endArrow=none;" parent="1" source="node-4" target="node-3" edge="1">
            <mxGeometry relative="1" as="geometry" />
          </mxCell>
        </object>
        <object label="node-55" id="node-55">
          <mxCell style="shape=mxgraph.cisco.routers.atm_router;html=1;pointerEvents=1;dashed=0;fillColor=#036897;strokeColor=#ffffff;strokeWidth=2;verticalLabelPosition=bottom;verticalAlign=top;align=center;outlineConnect=0;" parent="1" vertex="1">
            <mxGeometry x="200" y="150" width="78" height="53" as="geometry" />
          </mxCell>
        </object>
        <object label="" id="80ae0df67df27c592ace3f870f67e3d6">
          <mxCell style="endArrow=none;" parent="1" source="node-55" target="node-2" edge="1">
            <mxGeometry relative="1" as="geometry" />
          </mxCell>
        </object>
      </root>
    </mxGraphModel>
  </diagram>
</mxfile>
